<svg x="0px" y="0px" xmlns="http://www.w3.org/2000/svg" viewBox="0 0 146.3 57.24" class="w-full h-auto object-contain"><path class="cls-1" d="M20.28 53.16a1 1 0 0 1-1-1 1 1 0 1 1 1 1ZM33.48 49.8c-.12 0-.12.12-.36.12a.44.44 0 0 1-.36.12c-1.08.48-1.32.72-1.32 1.32s.24.84.84.84a3.33 3.33 0 0 0 1.44-.6v-2ZM35 53.16a1.17 1.17 0 0 1-1.2-1 4 4 0 0 1-2.28 1.08 1.42 1.42 0 0 1-1.44-1.56 1.39 1.39 0 0 1 .48-1.2c.24-.24.48-.36 1.92-1a3.64 3.64 0 0 0 1.2-.6v-.6c0-1-.36-1.44-1.2-1.44a.84.84 0 0 0-1 .72c-.12.48-.24.72-.72.72a.77.77 0 0 1-.72-.72c0-.84 1.32-1.44 2.88-1.44s2 .48 2 1.8v1.2c0 1-.12 1.56-.12 1.8 0 .72.24 1.2.6 1.2s.48-.12 1-.72l.36.24q-.64 1.52-1.76 1.52ZM48.24 46.8a1.64 1.64 0 0 0-1.44 1.8c0 1.08.6 1.8 1.44 1.8s1.44-.72 1.44-1.8-.6-1.8-1.44-1.8Zm2.28 7.44c-.24-.24-.6-.36-1.56-.48h-.6a1.54 1.54 0 0 1-.84-.12c-1.2.36-1.8.84-1.8 1.56s1 1.44 2.4 1.44 2.64-.72 2.64-1.68a.58.58 0 0 0-.24-.72Zm1.32-6.6h-.36a4.89 4.89 0 0 1-.84-.24 1.45 1.45 0 0 1 .36 1.2 2.4 2.4 0 0 1-2.64 2.4 1.78 1.78 0 0 1-.72-.12c-.48.24-.72.36-.72.72a.64.64 0 0 0 .36.48 4.75 4.75 0 0 0 1.8.24c1.32 0 1.92.12 2.4.6a2.28 2.28 0 0 1 .6 1.56c0 1.68-1.56 2.76-4 2.76s-3.6-.84-3.6-2c0-1 .72-1.56 2.28-1.92-.84-.36-1.2-.72-1.2-1.32s.36-.84 1.32-1.32a2.05 2.05 0 0 1-1.44-2 2.6 2.6 0 0 1 2.76-2.52 3.68 3.68 0 0 1 1.8.48c.36.12.48.24.72.24s.36-.12.72-.24a1 1 0 0 1 .72-.24.57.57 0 0 1 .6.6 1 1 0 0 1-.92.64ZM64.08 46.92a2 2 0 0 0-1.8 1.68H64c1.08 0 1.2-.12 1.2-.48a1 1 0 0 0-1.12-1.2Zm2.52 2.16c-.12.12-.36.12-1.08.12h-3.24v.48a2.15 2.15 0 0 0 2.16 2.4 4.18 4.18 0 0 0 2-.72l.36.36A4 4 0 0 1 64 53a3.16 3.16 0 0 1-3.12-3.36A3.47 3.47 0 0 1 64.32 46a2.36 2.36 0 0 1 2.52 2.4c-.12.44-.12.6-.24.68ZM79.92 53v-.48c.48 0 .84-.12 1-.36a1 1 0 0 0 .24-.72c0-.36.12-1 .12-1.56A6.16 6.16 0 0 0 81 48a1.38 1.38 0 0 0-1.32-.72 1.54 1.54 0 0 0-1.2.48 1.66 1.66 0 0 0-.36.48 2.23 2.23 0 0 0-.24 1.2v2c0 .36 0 .48.12.6s.48.36 1.08.36v.48h-4v-.48c.6 0 .72 0 1-.12s.48-.6.48-1.44v-2.48a4.24 4.24 0 0 0-.12-.72c-.12-.36-.48-.48-1.2-.48v-.36h.24c.6 0 .72-.12 1.2-.12s1-.12 1.44-.24c0 .36 0 .48-.12.6v.48a3.38 3.38 0 0 1 2.52-1.2 1.76 1.76 0 0 1 1.8 1.08 4.43 4.43 0 0 1 .24 2V52c0 .24.12.36.36.48a2.06 2.06 0 0 0 1 .12v.4ZM94.92 53.28a3.16 3.16 0 0 1-3.12-3.36 3.57 3.57 0 0 1 3.6-3.72c1.2 0 2.28.6 2.28 1.44a.67.67 0 0 1-.72.6c-.36 0-.48-.12-.6-.6s-.12-.48-.24-.6a1 1 0 0 0-.72-.24c-1.08 0-2 1.32-2 2.88s.84 2.52 2.16 2.52a3.48 3.48 0 0 0 1.92-.72l.36.48a4.5 4.5 0 0 1-2.92 1.32ZM112.81 47.16a3.65 3.65 0 0 0-.72 1.44l-2.16 5.28c-.36 1-.48 1.08-.72 1.68a2.52 2.52 0 0 1-2.29 1.56c-1 0-1.68-.48-1.68-1.08a.77.77 0 0 1 .72-.72c.36 0 .6.12.84.6s.36.48.6.48c.49 0 1.09-.6 1.57-1.92l.48-1.2.12-.24-2-4.56-.12-.36a2 2 0 0 1-.24-.6.94.94 0 0 0-.48-.48c-.12-.12-.36-.12-.72-.12v-.48h4v.48h-.6c-.49 0-.72.24-.72.48a3.46 3.46 0 0 0 .48 1.32l.12.36 1.08 2.4 1.08-2.64a5.73 5.73 0 0 0 .48-1.44c0-.12-.12-.24-.24-.36a2.93 2.93 0 0 0-.84-.12v-.48h3.12v.48c-.68 0-.92 0-1.16.24ZM17.88 9.48a7.52 7.52 0 0 0-5.16-2.16 3.76 3.76 0 0 0-3 1.08 2.83 2.83 0 0 0-.84 1.92A2 2 0 0 0 9.6 12c.72.72 1.8 1 3.84 1.8l2.28.84a11.5 11.5 0 0 1 4.2 2.4 7.74 7.74 0 0 1 2.28 5.76 10.86 10.86 0 0 1-2.76 7.68c-2.76 2.88-6.72 3.12-8.76 3.12a13.4 13.4 0 0 1-6.12-1.32A21.34 21.34 0 0 1 0 28.92l3.72-5a25.42 25.42 0 0 0 2.88 2.4 7.14 7.14 0 0 0 3.84 1.08 5.23 5.23 0 0 0 3.24-1.08 3.12 3.12 0 0 0 1.08-2.52 2.42 2.42 0 0 0-1.08-2.16 12.16 12.16 0 0 0-3.6-1.68l-2.52-.84a11 11 0 0 1-4.32-2.4 7.72 7.72 0 0 1-1.8-5.4 9.69 9.69 0 0 1 2.64-7c2.16-2.16 4.8-2.76 7.68-2.76a14.9 14.9 0 0 1 9.12 3ZM53.4 21.48l-3.84-10.32-3.84 10.32Zm1.92 5.4H43.68l-2.4 5.88h-7.44L46.32 1.92h6.48l12.12 30.84h-7.44ZM87.72 1.92v24.84h9.61v6H80.64V1.92h7.08zM126.01 7.92v24.84h-7.08V7.92h-6.72v-6h20.52v6h-6.72zM142 2.32c.92 0 1.35.24 1.35.87S142.89 4 142 4h-.86V2.32Zm.15-.54h-1.82V6.7h.83V4.56h1l1 2.14h.93L143 4.44a1.28 1.28 0 0 0 1.15-1.31c.01-.92-.67-1.35-2.04-1.35Zm3.69 2.55A3.64 3.64 0 0 1 144.69 7 3.81 3.81 0 0 1 142 8.09 3.71 3.71 0 0 1 139.33 7a3.75 3.75 0 0 1 0-5.37A3.63 3.63 0 0 1 142 .52a3.74 3.74 0 0 1 2.71 1.11 3.79 3.79 0 0 1 1.09 2.7ZM142 0a4.11 4.11 0 0 0-3 1.24 4.32 4.32 0 0 0-1.29 3.07 4.2 4.2 0 0 0 1.26 3 4.23 4.23 0 0 0 3 1.29 4.37 4.37 0 0 0 3.06-1.29 4.11 4.11 0 0 0 1.25-3A4.28 4.28 0 0 0 142 0Z" fill="#111"></path></svg>
